PathFileType	4	(X/Y/Z)	Patient4_TMGait_0pt5_01_left_27.trc.trc
DataRate	CameraRate	NumFrames	NumMarkers	Units	OrigDataRate	OrigDataStartFrame	OrigNumFrames
73.684210526316	73.684210526316	4	33	mm	73.684210526316	53	       141
Frame#	Time	L.ASIS			Sacral			L.Shoulder			Chest			R.Shoulder			Neck			R.ASIS			R.Thigh.Superior			R.Thigh.Lateral			R.Thigh.Inferior			R.Patella			L.Thigh.Superior			L.Thigh.Lateral			L.Thigh.Inferior			L.Patella			L.Shank.Superior			L.Shank.Lateral			L.Shank.Inferior			R.Shank.Superior			R.Shank.Lateral			R.Shank.Inferior			R.Heel			R.Midfoot.Superior			R.Midfoot.Lateral			R.Toe			L.Heel			L.Midfoot.Lateral			L.Midfoot.Superior			L.Toe			L.Elbow			L.Wrist			R.Elbow			R.Wrist			
		X1	Y1	Z1	X2	Y2	Z2	X3	Y3	Z3	X4	Y4	Z4	X5	Y5	Z5	X6	Y6	Z6	X7	Y7	Z7	X8	Y8	Z8	X9	Y9	Z9	X10	Y10	Z10	X11	Y11	Z11	X12	Y12	Z12	X13	Y13	Z13	X14	Y14	Z14	X15	Y15	Z15	X16	Y16	Z16	X17	Y17	Z17	X18	Y18	Z18	X19	Y19	Z19	X20	Y20	Z20	X21	Y21	Z21	X22	Y22	Z22	X23	Y23	Z23	X24	Y24	Z24	X25	Y25	Z25	X26	Y26	Z26	X27	Y27	Z27	X28	Y28	Z28	X29	Y29	Z29	X30	Y30	Z30	X31	Y31	Z31	X32	Y32	Z32	X33	Y33	Z33	

53	36.745714285714	883.280595733093	962.450726770455	280.716080240886	666.232375448164	1009.608668075180	433.338904817967	844.689766283616	1431.556084618583	242.222311975261	941.678601769111	1368.372702273875	409.419752902258	850.910649209314	1449.512248101303	577.605040373097	841.356249813652	1499.042047788467	390.227469608298	889.837453800490	948.407201283525	555.155146600324	970.307185985604	776.148285879945	532.946128312843	925.356656694678	655.103741000779	605.071234000090	1018.517560527682	613.737383802033	531.582292228669	1034.886697879619	501.254039525370	554.442221850437	925.670691254975	751.581328207828	308.228565407221	833.103029776431	637.425290598029	255.339026668595	917.257458852451	558.631837142560	316.597062215922	916.164778892667	488.415055164018	328.135402703058	887.691446757527	416.841562521338	323.279106909012	794.881640358231	303.282729069253	275.832915174217	844.220729113806	193.646134103319	351.103357585291	961.933195849272	424.821755301051	556.996921970015	841.122852956070	379.235921700541	612.873969564445	832.807746886990	270.631573819708	562.548806127167	634.726816294096	198.535922880008	526.833090443023	804.907681231252	152.457613359760	574.137020195044	695.141447210386	146.372264322878	604.752748726771	876.176419562146	46.735338813596	609.944488776998	711.969995442459	38.790415445563	396.344227670489	788.296479367646	35.004907244125	317.338566533999	871.172089354694	95.953814920702	344.918641178042	999.793853109973	44.167883530830	321.720695225721	817.455597499080	1082.765459715474	110.338438084267	948.492590639776	854.769292132885	108.080393714232	790.898112598201	1111.841444690348	703.625301645135	927.306439645254	891.561347102025	680.797142232704	
54	36.759285714286	882.949204529346	962.854921275138	280.355321709095	665.595966646655	1010.090968973103	432.197219335824	845.642101514209	1431.528685722880	240.666879395639	941.296430345772	1368.857664673685	408.780381000134	849.305501221581	1450.360459188898	576.099670495373	841.110076430067	1499.424792096208	388.529503184784	888.946611862932	949.445010712032	554.751229164006	971.198684341603	779.255230719791	532.241688125804	928.489320001213	657.631249739948	604.735542007319	1021.656541409351	617.504119306482	530.724493368155	1040.476937618499	506.197747758885	553.715231356984	922.908317743848	750.822767837612	308.174373028278	828.931285162370	637.699731451011	254.924871807600	911.860923701837	557.968168098893	316.360466581038	909.812096956690	487.977484389125	327.949349578079	881.381007426245	416.756337112612	322.970533137821	788.240020979385	303.373644474185	275.580075420213	837.521850168190	193.680013097661	350.931259498977	970.779717121053	427.602844534298	556.900979329742	852.938796598966	376.491750477230	613.931488591969	849.306331405024	267.523352219133	563.809602919236	654.767827863402	185.874733609490	530.146940597069	827.235628525382	148.127700589022	575.586230077685	718.395067490448	136.682376737789	607.461306983956	903.878368231008	46.123695270631	610.416491654405	705.102651697602	38.818100779258	396.313542768647	781.464139611797	34.998982047805	317.322779578070	864.363187661270	95.953943249981	344.862881008834	992.961583816469	44.131259578112	321.710913366446	824.869288883964	1082.573995041923	108.018460885149	959.998772786535	857.019935127283	106.786621345717	781.493647509416	1114.659517595023	702.987714519635	903.269883028987	884.832100501393	686.304591210272	
55	36.772857142857	882.587207910677	963.100822649311	280.140937757880	664.964850078268	1010.450215400164	431.217590360323	846.527597798159	1431.388492649018	239.310870293159	940.933887602068	1369.201260599977	408.270074660462	847.802344011514	1451.020571238203	574.776975781353	840.832262752970	1499.662758893582	387.045561934742	888.059038437481	950.261327685222	554.434614784768	971.664080353365	781.788425275142	531.541415187132	930.952418451940	659.713900321055	604.389348121876	1023.843467176087	620.592753603202	529.690345061841	1045.017754401114	510.753580234745	552.782188249123	920.234004312032	750.008056332330	308.320372397341	824.918095569570	637.910726736891	254.584279431961	906.570271196943	557.281340922835	316.260636398383	903.561403920565	487.511072821141	327.899123574784	875.177641535855	416.610273817118	322.774087794830	781.738744099674	303.422077110546	275.377326839251	830.870422292385	193.663455155577	350.820421153697	978.989773784726	430.038230481191	556.774080792645	864.802425254686	373.040108955980	615.256864776506	866.311538546355	263.885470495435	565.322899000686	676.180519611953	171.944942710410	534.122020624405	850.728524925664	143.453477263694	577.356675093383	743.230333558072	126.241494762137	610.722344104925	933.085508263192	45.783555794398	611.091657117368	698.249821970991	38.830917743334	396.291383817662	774.632580985166	34.987376208559	317.316891583390	857.550960617129	95.943016409414	344.840024188668	986.136810721899	44.089209286704	321.716183063835	832.092088282417	1082.375910441140	106.052640255997	971.456079991494	859.446479850115	105.841270616124	772.533211372559	1117.398561956170	702.402723448861	879.139360724045	879.307130950060	691.806931588167	
56	36.786428571429	882.222830440187	963.192358477003	280.049997374091	664.344146631537	1010.674245090089	430.393986696946	847.333269307569	1431.123614440598	238.163837722323	940.594813031721	1369.385012288357	407.890768315809	846.419651528199	1451.475574192414	573.651134470463	840.547240351544	1499.745752660610	385.782966725912	887.187936723080	950.841349013315	554.214766643709	971.698045557460	783.695560855976	530.852719216345	932.721391895275	661.309953273734	604.052676996370	1025.069033817168	622.943839680961	528.514732802395	1048.504833943020	514.861258356309	551.661029367178	917.681266666282	749.136258430493	308.622001569306	821.077109341902	638.050082066014	254.308632547447	901.409486474501	556.564539241900	316.273289579548	897.438673943368	487.008424761016	327.970783981207	869.102423854188	416.393490239105	322.680718685391	775.392870685918	303.424852882573	275.220569247253	824.274924252159	193.591610518077	350.768885190816	986.529096232048	432.144153038370	556.611695720503	876.693948190419	369.063801305602	616.801067396999	883.716085459619	259.979555896479	566.998818201550	698.940102887602	157.260892998631	538.572203972202	875.177770025434	138.796168180837	579.305381854920	769.497891332575	115.531632354117	614.339766080555	963.419405847089	46.065739101883	611.831048460914	691.412998829422	38.829515252925	396.273601674419	767.801253515142	34.970896447056	317.319285054572	850.734079227413	95.921230906660	344.848303629484	979.317595532172	44.042280137719	321.734010229791	839.064560481931	1082.149829811090	104.442002883091	982.830729251532	862.059220571533	105.238516052928	764.014058288183	1120.013068297271	701.850900711874	855.155502102837	875.015476922143	697.216036572289	
